# xmcd CD database file
#
# Track frame offsets:
#	150
#	13468
#	26196
#	41608
#	56983
#	70264
#	87297
#	102157
#	115986
#	129090
#
# Disc length: 1963 seconds
#
# Revision: 4
# Processed by: cddbd v1.5.2PL0 Copyright (c) Steve Scherf et al.
# Submitted via: CDex 2.21
#
DISCID=8a07a90a
DTITLE=Aaron Tippin - 25  CD 1
DYEAR=2015
DGENRE=Country
TTITLE0=You've Got to Stand for Something
TTITLE1=There Ain't Nothin' wrong With the Radio
TTITLE2=My Blue Angel
TTITLE3=Working Man's Ph.D
TTITLE4=Honky-Tonk Superman
TTITLE5=I Got It Honest
TTITLE6=That's as Close as I'll Get to Loving You
TTITLE7=Big Boy Toys
TTITLE8=Kiss This
TTITLE9=Where the Stars and Stripes and the Eagle Fly
EXTD=YEAR: 2015
EXTT0=
EXTT1=
EXTT2=
EXTT3=
EXTT4=
EXTT5=
EXTT6=
EXTT7=
EXTT8=
EXTT9=
PLAYORDER=
